<svg width="90" height="20" viewBox="0 0 90 20" fill="none" xmlns="http://www.w3.org/2000/svg">
<path d="M7.80526 2H10.1928V4.08289C12.7143 4.23246 14.6504 4.91937 15.989 6.15839C17.3277 7.39188 18 8.93004 18 10.7655C18 12.8207 17.2745 14.4456 15.8254 15.6366C14.3724 16.8277 12.4975 17.461 10.1928 17.5349V20H7.80526V17.5349C5.43746 17.4518 3.5448 16.7963 2.12727 15.5739C0.707777 14.3478 0 12.7782 0 10.8689C0 9.61879 0.305586 8.48687 0.922672 7.47312C1.53582 6.45938 2.40329 5.66167 3.52902 5.07448C4.64885 4.49282 6.07623 4.16229 7.80526 4.08289V2ZM10.1928 15.6366C11.8705 15.5886 13.1895 15.1492 14.1378 14.3127C15.09 13.4762 15.5652 12.311 15.5652 10.8227C15.5652 9.41198 15.1117 8.25605 14.2009 7.36418C13.29 6.46861 11.9553 6.02359 10.1928 6.02359V15.6385V15.6366ZM7.80526 6.02175C6.11763 6.06422 4.80854 6.50185 3.87601 7.32355C2.94743 8.14526 2.48215 9.31966 2.48215 10.8578C2.48215 12.4108 2.9908 13.5851 4.00613 14.3958C5.02147 15.2009 6.28916 15.6145 7.80526 15.6385V6.02359V6.02175Z" fill="#978b7d"/>
<path d="M27.786 16H29.856L29.712 13.3V9.844C29.712 7.612 28.812 6.226 25.842 6.226C22.8 6.226 21.972 7.846 21.972 9.448V9.61H24.204C24.204 8.782 24.492 8.044 25.788 8.044C26.994 8.044 27.372 8.638 27.372 9.844V9.88L24.942 10.258C23.088 10.528 21.612 11.176 21.612 13.246V13.426C21.612 14.956 22.476 16.234 24.492 16.234C25.914 16.234 26.94 15.676 27.606 14.902L27.786 16ZM25.302 14.308C24.348 14.308 23.952 13.732 23.952 13.138V12.994C23.952 12.256 24.384 11.788 25.374 11.626L27.372 11.302V13.318C27.066 13.732 26.4 14.308 25.302 14.308ZM31.6215 6.46V12.976C31.6215 14.722 32.4675 16.234 34.5555 16.234C36.0675 16.234 37.0575 15.604 37.6515 14.74L37.8675 16H39.9375L39.7935 13.3V6.46H37.4535V13.102C37.1655 13.552 36.5535 14.182 35.4735 14.182C34.3935 14.182 33.9435 13.534 33.9435 12.616V6.46H31.6215ZM46.5521 6.226C45.3821 6.226 44.5181 6.82 43.9781 7.612L43.7801 6.46H41.7101L41.8721 9.16V16H44.2121V9.52C44.5001 9.088 45.1661 8.512 46.4261 8.512H46.8221V6.244C46.7681 6.244 46.6601 6.226 46.5521 6.226ZM56.3036 12.094V10.996C56.3036 8.278 54.9716 6.226 52.0376 6.226C49.0856 6.226 47.6636 8.278 47.6636 10.996V11.464C47.6636 14.182 49.0496 16.234 52.1276 16.234C54.8636 16.234 56.3036 14.722 56.3036 13.012V12.94H54.0896C54.0896 13.66 53.4236 14.416 52.1456 14.416C50.8136 14.416 50.0936 13.66 50.0036 12.094H56.3036ZM51.9836 8.044C53.2616 8.044 53.8736 8.854 53.9456 10.366H50.0036C50.0936 8.854 50.7236 8.044 51.9836 8.044ZM63.7508 16H65.8208L65.6768 13.3V9.844C65.6768 7.612 64.7768 6.226 61.8068 6.226C58.7648 6.226 57.9368 7.846 57.9368 9.448V9.61H60.1688C60.1688 8.782 60.4568 8.044 61.7528 8.044C62.9588 8.044 63.3368 8.638 63.3368 9.844V9.88L60.9068 10.258C59.0528 10.528 57.5768 11.176 57.5768 13.246V13.426C57.5768 14.956 58.4408 16.234 60.4568 16.234C61.8788 16.234 62.9048 15.676 63.5708 14.902L63.7508 16ZM61.2668 14.308C60.3128 14.308 59.9168 13.732 59.9168 13.138V12.994C59.9168 12.256 60.3488 11.788 61.3388 11.626L63.3368 11.302V13.318C63.0308 13.732 62.3648 14.308 61.2668 14.308Z" fill="#978b7d"/>
<path d="M70.366 1.6H70.616V1.35H70.366V1.6ZM68.026 1.6V1.35H67.776V1.6H68.026ZM68.026 13.3L68.276 13.3133V13.3H68.026ZM67.882 16L67.6324 15.9867L67.6183 16.25H67.882V16ZM69.952 16V16.25H70.1638L70.1986 16.0411L69.952 16ZM70.15 14.812L70.3601 14.6766L70.0097 14.1329L69.9034 14.7709L70.15 14.812ZM70.366 7.342H70.116V8.03251L70.5581 7.50205L70.366 7.342ZM70.366 9.358L70.1554 9.22324L70.116 9.28485V9.358H70.366ZM70.366 13.102H70.116V13.1752L70.1554 13.2368L70.366 13.102ZM70.366 1.35H68.026V1.85H70.366V1.35ZM67.776 1.6V13.3H68.276V1.6H67.776ZM67.7764 13.2867L67.6324 15.9867L68.1316 16.0133L68.2756 13.3133L67.7764 13.2867ZM67.882 16.25H69.952V15.75H67.882V16.25ZM70.1986 16.0411L70.3966 14.8531L69.9034 14.7709L69.7054 15.9589L70.1986 16.0411ZM69.9399 14.9474C70.5052 15.8247 71.4462 16.484 72.904 16.484V15.984C71.6258 15.984 70.8388 15.4193 70.3601 14.6766L69.9399 14.9474ZM72.904 16.484C74.2834 16.484 75.2562 15.9501 75.8722 15.0348C76.4769 14.1361 76.718 12.899 76.718 11.518H76.218C76.218 12.855 75.9821 13.9759 75.4573 14.7557C74.9438 15.5189 74.1346 15.984 72.904 15.984V16.484ZM76.718 11.518V10.942H76.218V11.518H76.718ZM76.718 10.942C76.718 9.55234 76.477 8.31489 75.872 7.41817C75.2557 6.50473 74.2825 5.976 72.904 5.976V6.476C74.1355 6.476 74.9443 6.93727 75.4575 7.69783C75.982 8.47511 76.218 9.59566 76.218 10.942H76.718ZM72.904 5.976C71.6404 5.976 70.7605 6.47806 70.1739 7.18195L70.5581 7.50205C71.0515 6.90994 71.7916 6.476 72.904 6.476V5.976ZM70.616 7.342V1.6H70.116V7.342H70.616ZM70.5766 9.49276C70.8447 9.07384 71.3724 8.51 72.238 8.51V8.01C71.1236 8.01 70.4633 8.74216 70.1554 9.22324L70.5766 9.49276ZM72.238 8.51C72.8303 8.51 73.2198 8.72804 73.4742 9.11146C73.7404 9.51276 73.878 10.1249 73.878 10.942H74.378C74.378 10.0851 74.2366 9.35624 73.8908 8.83504C73.5332 8.29596 72.9777 8.01 72.238 8.01V8.51ZM73.878 10.942V11.518H74.378V10.942H73.878ZM73.878 11.518C73.878 12.3352 73.7404 12.9422 73.4748 13.3386C73.2212 13.7171 72.832 13.932 72.238 13.932V14.432C72.976 14.432 73.5318 14.1519 73.8902 13.6169C74.2366 13.0998 74.378 12.3748 74.378 11.518H73.878ZM72.238 13.932C71.3694 13.932 70.8423 13.3824 70.5766 12.9672L70.1554 13.2368C70.4657 13.7216 71.1266 14.432 72.238 14.432V13.932ZM70.616 13.102V9.358H70.116V13.102H70.616ZM78.2226 16H77.9726V16.25H78.2226V16ZM80.5626 16V16.25H80.8126V16H80.5626ZM80.5626 6.46H80.8126V6.21H80.5626V6.46ZM78.2226 6.46V6.21H77.9726V6.46H78.2226ZM80.6706 2.266H80.9206V2.016H80.6706V2.266ZM78.1146 2.266V2.016H77.8646V2.266H78.1146ZM78.1146 4.804H77.8646V5.054H78.1146V4.804ZM80.6706 4.804V5.054H80.9206V4.804H80.6706ZM78.2226 16.25H80.5626V15.75H78.2226V16.25ZM80.8126 16V6.46H80.3126V16H80.8126ZM80.5626 6.21H78.2226V6.71H80.5626V6.21ZM77.9726 6.46V16H78.4726V6.46H77.9726ZM80.6706 2.016H78.1146V2.516H80.6706V2.016ZM77.8646 2.266V4.804H78.3646V2.266H77.8646ZM78.1146 5.054H80.6706V4.554H78.1146V5.054ZM80.9206 4.804V2.266H80.4206V4.804H80.9206ZM85.8546 6.46H85.6046V6.71H85.8546V6.46ZM85.8546 3.76H86.1046V3.51H85.8546V3.76ZM83.5146 3.76V3.51H83.2646V3.76H83.5146ZM83.5146 6.46V6.71H83.7646V6.46H83.5146ZM82.0566 6.46V6.21H81.8066V6.46H82.0566ZM82.0566 8.512H81.8066V8.762H82.0566V8.512ZM83.5146 8.512H83.7646V8.262H83.5146V8.512ZM88.3206 16L88.4324 16.2236L88.5706 16.1545V16H88.3206ZM88.3206 14.056H88.5706V13.6515L88.2088 13.8324L88.3206 14.056ZM85.8546 8.512V8.262H85.6046V8.512H85.8546ZM88.5006 8.512V8.762H88.7506V8.512H88.5006ZM88.5006 6.46H88.7506V6.21H88.5006V6.46ZM86.1046 6.46V3.76H85.6046V6.46H86.1046ZM85.8546 3.51H83.5146V4.01H85.8546V3.51ZM83.2646 3.76V6.46H83.7646V3.76H83.2646ZM83.5146 6.21H82.0566V6.71H83.5146V6.21ZM81.8066 6.46V8.512H82.3066V6.46H81.8066ZM82.0566 8.762H83.5146V8.262H82.0566V8.762ZM83.2646 8.512V12.886H83.7646V8.512H83.2646ZM83.2646 12.886C83.2646 14.1646 83.6204 15.0798 84.2765 15.6705C84.9277 16.2568 85.8312 16.484 86.8446 16.484V15.984C85.8959 15.984 85.1345 15.7702 84.6111 15.299C84.0927 14.8322 83.7646 14.0734 83.7646 12.886H83.2646ZM86.8446 16.484C87.7174 16.484 88.2444 16.3176 88.4324 16.2236L88.2088 15.7764C88.1088 15.8264 87.6637 15.984 86.8446 15.984V16.484ZM88.5706 16V14.056H88.0706V16H88.5706ZM88.2088 13.8324C88.212 13.8308 88.1896 13.8401 88.1253 13.8544C88.0688 13.867 87.9961 13.88 87.914 13.8918C87.7489 13.9153 87.5587 13.932 87.4026 13.932V14.432C87.5885 14.432 87.8032 14.4127 87.9847 14.3867C88.0758 14.3737 88.1617 14.3586 88.234 14.3425C88.2986 14.3281 88.3752 14.3082 88.4324 14.2796L88.2088 13.8324ZM87.4026 13.932C86.9264 13.932 86.6196 13.8625 86.4266 13.6973C86.2427 13.5399 86.1046 13.2432 86.1046 12.634H85.6046C85.6046 13.3028 85.7544 13.7801 86.1015 14.0772C86.4395 14.3665 86.9068 14.432 87.4026 14.432V13.932ZM86.1046 12.634V8.512H85.6046V12.634H86.1046ZM85.8546 8.762H88.5006V8.262H85.8546V8.762ZM88.7506 8.512V6.46H88.2506V8.512H88.7506ZM88.5006 6.21H85.8546V6.71H88.5006V6.21Z" fill="#978b7d"/>
</svg>
